<?xml version="1.0" encoding="utf-8"?>
<!-- Generator: $$$/GeneralStr/196=Adobe Illustrator 27.6.0, SVG Export Plug-In . SVG Version: 6.00 Build 0)  -->
<svg version="1.1" id="Calque_1" xmlns="http://www.w3.org/2000/svg" xmlns:xlink="http://www.w3.org/1999/xlink" x="0px" y="0px"
	 viewBox="0 0 165.1 153.6" style="enable-background:new 0 0 165.1 153.6;" xml:space="preserve">
<style type="text/css">
	.st0{fill:#FFE15F;}
	.st1{fill:#EC3DC8;}
	.st2{fill:#EB3D60;}
</style>
<rect x="13.7" y="17" transform="matrix(0.9655 -0.2605 0.2605 0.9655 -17.6047 21.976)" class="st0" width="120.8" height="120.8"/>
<path class="st1" d="M95.8,11.8c36.8,0,66.6,29.8,66.6,66.6c-3.5,88.3-129.7,88.3-133.2,0C29.2,41.7,59,11.8,95.8,11.8z"/>
<path class="st2" d="M148.1,119.7L120.2,16.5c-42.8-17.4-91.5,15.6-91,62c0,28.3,17.7,52.5,42.6,62.1l76-20.5
	C147.9,120,148,119.8,148.1,119.7L148.1,119.7z"/>
<path d="M51.3,90.6c0.5-2.1,0.5-3.5,1.2-4.6c1.9-3.1,4.3-5.9,6.2-9C65,66.6,75.3,62.7,86.3,61.4c6.2-0.8,12.8,1.3,19.1,2.5
	c1.8,0.3,3.5,2,5,3.3c6,5.4,5.6,12.5,5.5,20.7C94.1,88.2,73.2,93.2,51.3,90.6 M86.8,82.7c6.6-0.2,13.4-0.4,21.1-0.6
	c-0.7-3.5-1-6.3-1.9-8.9c-0.4-1.2-1.5-2.7-2.6-3.1c-4.7-1.6-9.6-2.9-15-2.2C87.8,73.3,87.3,77.9,86.8,82.7 M65.3,80.2
	c-1.4,1.5-2.7,2.8-3.9,4c0.2,0.3,0.4,0.7,0.5,1c1.9-0.2,3.8-0.3,6.8-0.6C67.2,82.7,66.5,81.8,65.3,80.2"/>
<path d="M128.9,60.6c-3.2-3.8-6-5.7-9.6-6.8c-6.8-2-13.6-4.1-20.4-6.1c-16.7-4.8-35.8-4.9-49.5,7.2c-2.2,1.6-2.3,3.8-0.8,5.9
	c1.6,2.3,3.7,2,5.9,0.6c14.5-9.6,32.5-9.8,48.5-4C112,60.4,119.1,59.4,128.9,60.6"/>
</svg>
