<?xml version="1.0" encoding="utf-8"?>
<!-- Generator: $$$/GeneralStr/196=Adobe Illustrator 27.6.0, SVG Export Plug-In . SVG Version: 6.00 Build 0)  -->
<svg version="1.1" id="Calque_1" xmlns="http://www.w3.org/2000/svg" xmlns:xlink="http://www.w3.org/1999/xlink" x="0px" y="0px"
	 viewBox="0 0 1126.8 505.9" style="enable-background:new 0 0 1126.8 505.9;" xml:space="preserve">
<style type="text/css">
	.st0{fill:#FFDD64;}
	.st1{fill:#EA3EC8;}
	.st2{fill:#EB3D60;}
	.st3{fill:#00423D;}
</style>
<g>
	<g>
		<path class="st0" d="M441.3,394.4c-1.9,2.5-3.8,5-5.8,7.5l7.3-2.1L441.3,394.4z"/>
		<path class="st0" d="M94.8,280.1C94.8,174,180.8,88,286.9,88c25.3,0,49.5,4.9,71.6,13.8l-13.4-47.2L0,152.2l97.6,345.2L224,461.7
			C148.8,435.6,94.8,364.2,94.8,280.1z"/>
		<path class="st1" d="M286.9,472.2c59.9,0,113.4-27.4,148.6-70.3L224,461.7C243.7,468.5,264.9,472.2,286.9,472.2z"/>
		<path class="st1" d="M479,280.1c0-80.8-49.9-149.9-120.5-178.3l82.8,292.6C465,362.5,479,322.9,479,280.1z"/>
		<path class="st2" d="M358.5,101.8C336.4,92.9,312.2,88,286.9,88C180.8,88,94.8,174,94.8,280.1c0,84.1,54,155.5,129.2,181.6
			l211.4-59.8c2-2.4,3.9-4.9,5.8-7.5L358.5,101.8z"/>
	</g>
	<g>
		<path class="st3" d="M328.5,237.4c12.7,7.3,22,22.9,23.6,37.4l0.3-0.1c0.7,10.5-0.4,21.2-0.2,31.9c-43.8,2.4-88.9,6.9-133.2,11.4
			c-19.4,0.3-38.8-0.3-58.2-2.1c-5.4-6,0.2-16.4,4.7-22.6c13.9-16.9,23.9-39,44.4-50.6c7.9-3.8,25.6-15.6,31.8-8.6
			c10.8-1.7,4.9-7.5,20.7-7.8c-1.1,5.3,8.3,5.4,7.2,0c10.7,0.2,21.4,1.3,32,2.9c0,0-0.1,0.2-0.1,0.2
			C310.3,231.8,320.1,233,328.5,237.4z M269.9,249.9c0.3,5.6-1.9,10.9-1,16.5c-1,1.6-2.9,2.8-1.3,5.3c0.7,1.1,0.7,3.4,0,4.5
			c-1.7,4.3-1.1,9.7-1.2,13.8c16.1,0.9,35.6-2.6,53-1.2c10,0.5,8.8,1.2,7-8.2c-2.2-6.2-1.5-13.5-4.8-19.8
			C321.9,250.4,268.6,240.5,269.9,249.9z M188.5,295.5c3.5,6.9,10.7-0.1,16.3,1.8c7.1-0.3-0.9-7.8-2.7-10.3
			C197.1,282.5,192.6,293.1,188.5,295.5z"/>
		<path class="st3" d="M252.2,203.7c-4.8-0.1-9.6,0-14.4,0.8c0,0,0,0,0,0c-24.1-0.6-49.9,11.3-71.7,23.7c-3.7,1.9-7.6,4.6-11.6,1.7
			c-5.8-4.8-11.5-11.7-6.6-19.1c0,0,0.1,0.1,0.1,0.1c10.3-8.5,21.6-16.7,33-23.7L181,187c1.2-0.1,2.2,0,3.2-1l-0.1-0.1
			c13.3-4,26.6-8,40.3-9.1l-0.1-0.3c25.3-2.1,49.2,0.9,73.4,7.2l-0.1,0.2c3-0.1,5.5,1.8,8.3,1.9c0,0-0.1,0.2-0.1,0.2
			c0.6,0.5,1.3,1.1,2.2,0.8c1.8-0.1,3.3,1.1,5.1,1.1l-0.1,0.2c0.9,0.9,2,0.9,3.2,0.9l-0.1,0.2c4.2,1.3,9,2.9,13.5,3.9l-0.1,0.2
			c0.9,1,2,0.8,3.2,0.8c0,0-0.1,0.2-0.1,0.2c0.4,0,0.8,0,1.1,0.1c0,0-0.1-0.3-0.1-0.3c1.2,0,1.9,1.3,3.2,1.1l-0.1,0.2
			c1.8,1.1,4.1,1.5,6.3,1.9l-0.1,0.2c3.6,0.3,6.8,2.6,10.4,2.9l-0.1,0.2c3.6,0.2,6.7,3.3,10.4,2.9l-0.1,0.2c0.9,1,2,0.8,3.2,0.8
			l-0.1,0.2c9.9,3.2,16.7,10.5,23.9,17.3c0,0-0.2,0.2-0.2,0.2c0.4,0.3,0.8,0.6,1.1,0.9c-0.1,0.1-0.1,0.6-0.1,0.9
			c-15.1,2.5-31-2.7-46.5-2c-18.8-1.6-36.3-9.1-54.6-13.3l0.1-0.2C277.7,206.4,265.1,203.8,252.2,203.7z"/>
	</g>
	<g>
		<path class="st3" d="M744,111.7c-7,88.9-87.2,13.3-71.1-40.1c5.8-16.7,24.7-25.5,41.4-18.8C737.3,62.2,743.7,87.7,744,111.7z
			 M730.7,110.8c-1-19.3-7.9-46.4-30.6-48.6c-11.7,16-3.6,58.3,8.8,75.4C722,149.4,731.5,120.8,730.7,110.8z"/>
		<path class="st3" d="M562.7,303.2c-2.6-22.1-8-44.6-16.2-65.4c-3.7-7.2,8.2-12.6,9.7-4.1c10.1,26,20.8,53.7,18.4,82
			c-1.4,30.1-28.8,26.3-45.7,9.7c-15.9-13.5-24.5-32.9-28.5-53.1c-13.3-48.2,7.2-47.6,22.6-4.5c10.7,17.9,11,40.7,23.3,57.3
			C556.2,333.3,562.7,310.9,562.7,303.2z"/>
		<path class="st3" d="M640.9,317.1c-15.1-12.3-17.8-34.5-31.8-47.4c1.6,16.6,4.6,33.2,10.3,48.9c-4.7,26.9-32.9-55.2-32.3-61.5
			c0.2-9.5-14.1-39.6-1.9-42.2c11.7-2.5,24.4-4.9,34.6,3.9c25,26-3.5,35.5,0.6,44.6C625.2,273,650.4,309.9,640.9,317.1z
			 M619.1,236.9c0.6-9.7-10.3-13.7-18-14.5c-13.3,0.9,0.9,19.3,2.1,26.6C609.5,255.3,619.5,243.7,619.1,236.9z"/>
		<path class="st3" d="M955.2,130.4c11.2-1.9,22.8,8.2,20.5,19.4c-0.6,5.9-6.5,12,2.7,13.1c43.1,5.9,35.9,72.7-8.3,69.6
			c-12.8,0.6-20.9-53-25.8-64.8c-2.3-10.3-5.1-20.9-5.9-31.4C941.1,131.7,950.2,129.7,955.2,130.4z M972.4,172.2
			c0,0.1,0,0.3-0.1,0.4c-21.9-2.6-5.2,24.3-4.3,35.7c3.9,17.4,9.9,15.1,21.6,4.9C1005.3,197,997.1,170.9,972.4,172.2z M963.8,147
			c0-6-1.9-7.7-7.9-7.4c-7.7,1.4-1.1,12.7,0.1,17.3C958.7,161.4,964.6,150.1,963.8,147z"/>
		<path class="st3" d="M815.4,87.9c0.2,25.3-12.4,37.8-32.9,48.9c-12.8,7.2-25.8-52.4-29.3-62.5c-12.5-42.3-8.9-39,30.9-27.5
			C801.6,53.2,813.8,69.5,815.4,87.9z M759.3,50.5c3.6,23.9,18.5,49.4,20.8,75.3c2.1,6.9,15.7-9.3,18.3-12.2
			C817.9,84.5,782.7,61.2,759.3,50.5z"/>
		<path class="st3" d="M747.5,171.9c24.7,15.1,29.8,48,35.8,74c0.8,10.1,7.6,20.6,4.9,30.4c-9.1-0.6-9.7-37-16.4-33
			c-33.1,17.6-15.8,11.8-17.9,43.4c-8.9,2.7-13.3-24.2-16.7-30.9C732.5,233.4,724.4,185.3,747.5,171.9z M749.1,241.6
			c6.9-4.2,22.4-3.1,21.6-12.2c-3.8-14.2-8.5-32.2-20.6-41.2C747.5,205.9,749.9,223.3,749.1,241.6z"/>
		<path class="st3" d="M935.7,238.7c-11.1-3.1-8.2-24.8-15.1-33.5c-30.3,17.1-21.6,7.9-19.4,46c-18.1-9.2-21.8-60-22-79.3
			c3-58.4,31.3-36,42.3,4.2C928.4,196.2,933.1,217.7,935.7,238.7z M895.9,151c0.9,7.6-3.3,52.2,2.3,52.4c5.7-3.3,17.3-3.7,19.7-9.8
			C912.8,181.3,909.3,155.3,895.9,151z"/>
		<path class="st3" d="M660.7,166.6c-50.2-3.9-57.6-59.4-38.4-96.9c1.5-8.9,13.9-12.5,13.2-3.9c-8,23.2-9.8,48.7,6.2,69
			c11.6,20,23.1,22.6,44.4,17.8C684.2,162.8,669.1,165.8,660.7,166.6z"/>
		<path class="st3" d="M702.3,300.6c-7.8,0-11.9-3-14.1-8.9c-9.2-22.8-18.1-45.7-23.7-69.7c-4.4-11.2-0.3-30,10.2-11.4
			c2.4,8.2,6.7,15.5,10.7,22.9c7.5,14.6,9.6,31.4,15.3,46.7c6.2,8.3,22.4,0,31.7,0.8c10.8-0.3,5,9.3-1.5,11.5
			C722.7,297.1,710.9,298.6,702.3,300.6z"/>
		<path class="st3" d="M1039.6,216.7c-19.2-1.1-23.4-43.7-31.6-59.1c-2.2-7.8-13.4-37.1-2.6-39.1c4.8,1.6,7,5.3,8.1,9.5
			c10,21.7,19.3,43.1,24.6,66.5c3.9,10.3,19.9,1.9,28.2,1.9c16.5-0.4,10.2,9.6-0.9,13.1C1057,212.2,1048.1,213.8,1039.6,216.7z"/>
		<path class="st3" d="M468.3,210.8c-38.7,13.4-38.3,6.1-51-29c-6.3-18.6-14.7-37.8-14.8-57.6c7.6-14.3,13.5,10.4,17.4,15.5l0-0.1
			c9.8,18.1,13.6,38.3,20.7,57.4c7.5,9.3,22.5-1.1,32.9,1.4C484.9,200,473,208.6,468.3,210.8z"/>
		<path class="st3" d="M837.9,167.1c7.5,18.3,30.1,74.3,21.2,91.5c-16.1-26.6-31-55.5-34.1-87c-9.2,3.2-15.4,8-22.4-2.2
			c17.4-9.5,37.4-13.1,57.1-14.3C875.9,160,842.1,166.2,837.9,167.1z"/>
		<path class="st3" d="M541.8,192.1c-8.8,2.3-13.3-7.6-18.7-12.8c-6.7-11,2.7-16.5,10.2-6.1c2.3,4,5.1,8.7,10.6,7.6
			c23.8-17.4-16.6-66-8.3-89.7c2.9-7.2,11.1-14.1,18.7-12.7c1,0.7,2,1.5,2.5,2.5c2.6,4.8,4.9,4.6-1.7,8.1
			c-18.7,15.6,8.8,47.4,8.8,67.3C564.6,170.2,560.3,194.1,541.8,192.1z"/>
		<path class="st3" d="M901.1,85.8c0.8-27.4-22.5-49.3-13.9-75.7c4.4-8.4,20.2-16.3,22.5-3c-22.2,12.1-3.5,36.1,0.5,53.6
			c14.4,30.4-16.2,74.6-39.1,33c-2.9-4.3,3.4-10.5,7.2-6.6C889.1,98.4,897.1,108,901.1,85.8z"/>
		<path class="st3" d="M463.3,361.3c-22.9-6.5-25.5-42.8-0.6-12.3c18.2,5.9,11.3-29.6,7.3-38.9c-5.8-18.3-23.1-49.7,3.7-58.9
			c4.8-4,15.1,7.2,7,9.3c-19.6,12.5,2,36.6,4.4,53.2C491.9,331.3,487,361.7,463.3,361.3z"/>
		<path class="st3" d="M1092.7,98.6c1.3,10.8-18.2,5.9-17.6,13c4.6,8.1,2.8,32.8,16.8,26.9c2.8-0.8,8.4-4.4,9.9-0.3
			c-0.1,5.9-7.7,7.8-11.8,10.8c-4.3,2.4-4.5,2.8-3.2,7.8c3.3,10.6,4.6,21.9,9.3,31.9c4.6,5.7,14-1.1,20.4-0.6
			c1.4-0.2,3.4-1.1,4.2,1.4c-0.1,8-13,9.6-19.1,11.8c-23.2-0.7-23.6-37-31.6-53.5C1061.2,120.2,1052.1,96.2,1092.7,98.6z"/>
		<path class="st3" d="M841.8,18.2c1.3,11.3-18.6,4.5-17.3,13.6c11.8,35.6,3.7,25.9,26.7,24.7c0.3,3-0.4,5.4-3.4,7
			c-2.9,3-13.3,5.3-11.9,9.4c2.1,8.5,4.4,17,6.7,25.5c2.2,16.8,10.8,11.4,23.3,8.5c7.9-1.1,3.6,8-1.2,8.9
			c-32.3,19.1-37.4-26.8-44.4-48.3C811,41,801.3,14.7,841.8,18.2z"/>
		<path class="st3" d="M490.8,100.7c2.1,11.2-18.5,5.4-16.9,13.6c4,7.3,4.4,32,16.4,26.3c3.1-1,6.2-2.6,9.6-2.1
			c1.7,3.8-0.2,6.2-2.9,7.9c-3.4,3.7-12.9,3.5-11.5,10c3,10,4.7,20.5,7.9,30.4c1.4,12.6,14.7,2.6,22.8,2.7c3.6-0.6,4.4,2.7,2.7,5.2
			c-2.8,4.2-7.7,5.1-12,6.8c-30.5,14-36.3-59.7-45.2-78.6C456,105.4,476.7,98.3,490.8,100.7z"/>
	</g>
</g>
</svg>
