<?xml version="1.0" encoding="utf-8"?>
<!-- Generator: $$$/GeneralStr/196=Adobe Illustrator 27.6.0, SVG Export Plug-In . SVG Version: 6.00 Build 0)  -->
<svg version="1.1" id="Calque_1" xmlns="http://www.w3.org/2000/svg" xmlns:xlink="http://www.w3.org/1999/xlink" x="0px" y="0px"
	 viewBox="0 0 374.1 185.6" style="enable-background:new 0 0 374.1 185.6;" xml:space="preserve">
<style type="text/css">
	.st0{fill:#FFE15F;}
	.st1{fill:#EC3DC8;}
	.st2{fill:#EB3D60;}
</style>
<rect x="13.7" y="49" transform="matrix(0.9655 -0.2605 0.2605 0.9655 -25.9379 23.0809)" class="st0" width="120.8" height="120.8"/>
<path class="st1" d="M95.8,43.8c36.8,0,66.6,29.8,66.6,66.6c-3.5,88.3-129.7,88.3-133.2,0C29.2,73.7,59,43.8,95.8,43.8z"/>
<path class="st2" d="M148.1,151.7L120.2,48.5c-42.8-17.4-91.5,15.6-91,62c0,28.3,17.7,52.5,42.6,62.1l76-20.5
	C147.9,152,148,151.8,148.1,151.7L148.1,151.7z"/>
<path d="M51.3,122.6c0.5-2.1,0.5-3.5,1.2-4.6c1.9-3.1,4.3-5.9,6.2-9C65,98.6,75.3,94.7,86.3,93.4c6.2-0.8,12.8,1.3,19.1,2.5
	c1.8,0.3,3.5,2,5,3.3c6,5.4,5.6,12.5,5.5,20.7C94.1,120.2,73.2,125.2,51.3,122.6 M86.8,114.7c6.6-0.2,13.4-0.4,21.1-0.6
	c-0.7-3.5-1-6.3-1.9-8.9c-0.4-1.2-1.5-2.7-2.6-3.1c-4.7-1.6-9.6-2.9-15-2.2C87.8,105.3,87.3,109.9,86.8,114.7 M65.3,112.2
	c-1.4,1.5-2.7,2.8-3.9,4c0.2,0.3,0.4,0.7,0.5,1c1.9-0.2,3.8-0.3,6.8-0.6C67.2,114.7,66.5,113.8,65.3,112.2"/>
<path d="M128.9,92.6c-3.2-3.8-6-5.7-9.6-6.8c-6.8-2-13.6-4.1-20.4-6.1c-16.7-4.8-35.8-4.9-49.5,7.2c-2.2,1.6-2.3,3.8-0.8,5.9
	c1.6,2.3,3.7,2,5.9,0.6c14.5-9.6,32.5-9.8,48.5-4C112,92.4,119.1,91.4,128.9,92.6"/>
<path d="M158.6,68.2c0.9,4.3,2,8.1,3.2,12.2c0.3,1,0.9,1.3,1.8,1.2c1.9-0.3,3.9-0.8,5.7-1.2c0.4,0,0.9,0.2,1.1,0.5
	c0.4,2.2-4.4,3-5.9,3.7c-1.8,0.6-3.2-0.1-4.4-1.4c-1.8-2-2.8-4.4-3.5-6.9c-1.8-5.7-3.5-11.4-5.2-17.1c-0.6-1.9-0.5-3.9,0.2-5.8
	c0.2-0.5,0.6-1.1,1-1.3c2.6-0.9,5.4-2.2,8.2-1.4c0,1.4-0.7,1.7-1.7,2c-1.5,0.4-2.9,0.9-4.3,1.3c0.5,3,1.7,5.6,2.5,8.5
	c0.8,3.3,3.2,1.3,5.4,0.8c0.4-0.1,1.1,0,1.2,0.2c0.2,0.4,0.2,1.1,0,1.3C162.2,66.5,160.7,67.2,158.6,68.2"/>
<path d="M183.4,46c-8.6,3.2,0.4,14.2,1.5,22.9c0.4,3.4-0.7,7.9-2.1,9.9c-1.5,2.3-4.7,2.8-7.7,1.9c-1.5-1.7-5.7-4.7-3.6-7.6
	c3.8-0.4,3.5,5.6,7.3,4.4c3-0.9,2.4-7.2,1.1-11.3c-2.6-8.9-9.4-20.2,1.3-23C182.2,43.7,182.9,44.7,183.4,46"/>
<path d="M132.2,57.1c2.4,0.7,2.9,2.4,3.7,5c1.9,4.5,4.9,8.4,5.6,13.5c0.5,2.7,1.7,5.2,2.5,7.8c0.9,1.8,5.3,0.4,7,0.3
	c2.8-0.5,5.3-0.5,5.5,0.8s-2.8,2.9-6,3.7c-4.3,1-9,2.8-10.6-1.2c-3-7.8-6.8-17-8.3-25.1C131.3,60.2,131.4,58.6,132.2,57.1"/>
<path d="M245.5,31c2.7-1.1,5.2-0.3,7.7,0.2c7.2,1.2,14.4,6.7,15.2,14.4c0.2,4.5-0.7,10.4-4.9,12.9c-2,1.2-4,2.7-6,4.1
	c-0.6,0.4-1.1,0.4-1.7-0.2c-1.4-1.4-1.9-3.2-2.6-4.9C249.6,48.9,247.5,39.9,245.5,31 M249,33.6c1.7,4.6,3.5,8.8,4.9,13.2
	c1.4,4.3,2.3,8.8,3.4,13.4c2.9-2.2,5.7-4.1,7.1-7.3C267.6,43.4,256.9,36.3,249,33.6"/>
<path d="M275.1,40.3c0.9,4.3,2,8.1,3.2,12.2c0.3,1,0.9,1.3,1.8,1.2c1.9-0.3,3.9-0.8,5.7-1.2c0.4,0,0.9,0.2,1.1,0.5
	c0.4,2.2-4.4,3-5.9,3.7c-1.8,0.6-3.2-0.1-4.4-1.4c-1.8-2-2.8-4.4-3.5-6.9c-1.8-5.7-3.5-11.4-5.2-17.1c-0.6-1.9-0.5-3.9,0.2-5.8
	c0.2-0.5,0.6-1.1,1-1.3c2.6-0.9,5.4-2.2,8.2-1.4c0,1.4-0.7,1.7-1.7,2c-1.5,0.4-2.9,0.9-4.3,1.3c0.5,3,1.7,5.6,2.5,8.5
	c0.8,3.3,3.2,1.3,5.4,0.8c0.4-0.1,1.1,0,1.2,0.2c0.2,0.4,0.2,1.1,0,1.3C278.7,38.7,277.1,39.3,275.1,40.3"/>
<path d="M207.4,37.4c0.5,0.2,1,0.3,1.5,0.5c-0.3,1-2.3,8-2.2,11.6c-0.3,5.2,2,9.3,4.7,13.7c1.5,2.5,3.5,4.3,6.2,5.4
	c3.1,1.2,7.4-1,7.8-0.8c0.6,0.4,0.2,0.9-0.1,1.4c-1.6,1.2-2.4,1.8-4.9,2.8c-14.2,3.2-23-13.9-17.9-25.6c1.1-2.8,1.1-3.7,2.7-7.2
	C205.6,38.2,206.3,37.8,207.4,37.4"/>
<path d="M299.9,19.5c-8.6,3.1,0.3,13.7,1.2,22c0.4,3.3-0.8,7.6-2.2,9.5c-1.5,2.2-4.7,2.7-7.7,1.9c-1.4-1.6-5.6-4.5-3.5-7.3
	c3.8-0.4,3.5,5.3,7.3,4.2c3-0.9,2.4-7,1.2-10.9c-2.5-8.5-9.2-19.4,1.6-22.2C298.8,17.3,299.5,18.2,299.9,19.5"/>
<path d="M243.5,61.8c-1.5,4.3-6.1,7.7-10.4,5.1c-2.1-1.2-4.2-2.5-5.8-4.2c-1.5-1.5-2.4-3.5-3.4-5.4c-2.4-4.4-3.1-9.2-2.8-14.2
	c0.2-3.9,2.8-5.6,5.1-8.4C242.2,29,247.9,51.7,243.5,61.8 M229.3,37.5c-1.2,6.9-1.1,13.4,1.1,20c0.6,1.8,1.5,3.6,2.6,5.2
	c1.1,1.6,2.2,1.6,3.8,0.5c2-1.4,3-3.5,3.4-5.9c0.9-5.5-0.2-10.8-3.1-15.5C235.5,39.3,233.1,37.6,229.3,37.5"/>
<path d="M158.5,103.4c-8.6,3.1,0.3,13.7,1.2,22c0.4,3.3-0.8,7.6-2.2,9.5c-1.5,2.2-4.7,2.7-7.7,1.9c-1.4-1.6-5.6-4.5-3.5-7.3
	c3.8-0.4,3.5,5.3,7.3,4.2c3-0.9,2.4-7,1.2-10.9c-2.5-8.5-9.2-19.4,1.6-22.2C157.4,101.2,158.1,102.1,158.5,103.4"/>
<path d="M163.7,95.7c2.3,0.5,3.6,1.8,4.5,3.9c2.3,5.3,5.2,10.4,6.9,16c0.8,2.7,1.7,5.4,2.7,8c0.2,0.6,0.5,1.1,0.9,1.6
	c1.4,1.8,2.6,1.2,4.2-0.4c5.7-6.4-2.6-24.1-3.7-30.3c0.8-0.3,1.5-0.6,2.5-1c1,2.6,2.1,4.9,2.9,7.3c2.6,8.5,6.6,17.9,2.5,26.7
	c-0.7,1.3-1.6,2.1-3.2,2.2c-7.9,0.8-15.4-8.1-17.8-14.9c-1.4-3.7-2.2-7.5-3.1-11.4C162.4,100.9,162.6,98.3,163.7,95.7"/>
<path d="M203.1,103.9c2.6,3.6,4.5,7.8,6.6,11.8c1,2,2.4,5.9,1.8,6.5c-0.8,0.8-1.5,0.2-1.9-0.4c-1.8-2.6-2.3-3.9-4-6.6
	c-1.9-2.8-3-6-5.2-8.5c-0.1,0.3-0.3,0.4-0.3,0.5c0.6,5.4,1.3,10.7,3.3,15.8c0.3,0.8,0.6,1.5-0.2,2c-0.9,0.6-1.7,0-2.1-0.8
	c-1.2-2.5-2.3-5-3.5-7.4c-3.4-7.1-4.9-14.8-6.2-22.5c-0.2-1.3-0.5-2.5-0.8-3.7c-0.4-1.7,6-2.5,7.9-2.3c4,0.3,6.4,2.9,8.2,6.2
	C208.1,99.6,205,102.3,203.1,103.9 M198.5,101.1c1.1-0.4,1.9-0.6,2.7-1c2-1,3.1-3.4,2.4-5.1c-0.8-2.3-4-4.2-6.4-3.8
	c-1.8,0.3-2.3,0.9-1.7,2.6C196.4,96.2,197.5,98.5,198.5,101.1"/>
<path d="M218.9,84.5c2.4,0.7,2.9,2.4,3.7,5c1.9,4.5,4.9,8.4,5.6,13.5c0.5,2.7,1.7,5.2,2.5,7.8c0.9,1.8,5.3,0.4,7,0.3
	c2.8-0.5,5.3-0.5,5.5,0.8s-2.8,2.9-6,3.7c-4.3,1-9,2.8-10.6-1.2c-3-7.8-6.8-17-8.3-25.1C218,87.6,218.1,86,218.9,84.5"/>
<path d="M247.4,101.9c0.4,4,0.7,7.4,1,11c-1.4-0.2-2-1-2.3-1.9c-1.2-3.8-3.1-7.4-3.7-11.4c-1-6.2-1.9-12.3-0.3-18.4
	c0.8-2.7,2.4-9.3,6.1-5.4c2.8,2.7,4.9,6,6.2,9.7c0.8,2.1,1.1,4.3,2,6.3c1.5,3.6,1.4,7.4,2.4,11c0.6,2,1.2,3.9,1.3,6.1
	c-1.5,0.1-1.6-0.8-1.9-1.7c-0.9-3.1-1.9-6.2-3-9.7C252.5,99,249.9,100.5,247.4,101.9 M254.4,94.6c-1.1-4.9-2.9-9.3-5.4-13.4
	c-0.5-0.9-1.2-1.7-2.5-1.9c0.1,6,0.1,11.9,0.2,18C249.6,96.9,252,95.9,254.4,94.6"/>
<path d="M318.4,93.7c-3.7-8.5-7.2-21.9-8.6-31.2c-1.7,0,3.5-3.3,8.3-1.7c3,1,4.4,3.8,3.7,7c-0.2,0.9-0.6,1.7-0.9,2.8
	c1,0.2,2,0.5,2.9,0.7c8.7,1.7,11.4,13.1,6.2,19.1C326.2,94.6,317.4,94.4,318.4,93.7 M321.3,90.8c4.1-0.9,6.5-3.2,7.8-6.6
	c1.4-3.7-0.7-8.5-4-9.6c-1.4-0.5-3-0.7-4.5-0.7c-3.1-0.1-4.1,1.2-3.3,4.2c0.9,3.5,1.8,7,2.8,10.4C320.3,89.3,320.9,89.9,321.3,90.8
	 M315.6,70.2c1.8-1.6,2.7-3,2.7-4.6c-0.1-2-2.1-3.4-4-2.2C313.8,65.8,315,67.8,315.6,70.2"/>
<path d="M358.5,67c0.9,4.3,2,8.1,3.2,12.2c0.3,1,0.9,1.3,1.8,1.2c1.9-0.3,3.9-0.8,5.7-1.2c0.4,0,0.9,0.2,1.1,0.5
	c0.4,2.2-4.4,3-5.9,3.7c-1.8,0.6-3.2-0.1-4.4-1.4c-1.8-2-2.8-4.4-3.5-6.9c-1.8-5.7-3.5-11.4-5.2-17.1c-0.6-1.9-0.5-3.9,0.2-5.8
	c0.2-0.5,0.6-1.1,1-1.3c2.6-0.9,5.4-2.2,8.2-1.4c0,1.4-0.7,1.7-1.7,2c-1.5,0.4-2.9,0.9-4.3,1.3c0.5,3,1.7,5.6,2.5,8.5
	c0.8,3.3,3.2,1.3,5.4,0.8c0.4-0.1,1.1,0,1.2,0.2c0.2,0.4,0.2,1.1,0,1.3C362.1,65.3,360.6,66,358.5,67"/>
<path d="M331.3,56.1c2.4,0.7,2.9,2.4,3.7,5c1.9,4.5,4.9,8.4,5.6,13.5c0.5,2.7,1.7,5.2,2.5,7.8c0.9,1.8,5.3,0.4,7,0.3
	c2.8-0.5,5.3-0.5,5.5,0.8s-2.8,2.9-6,3.7c-4.3,1-9,2.8-10.6-1.2c-3-7.8-6.8-17-8.3-25.1C330.4,59.2,330.5,57.6,331.3,56.1"/>
<path d="M282.5,102c-2.3-3.9-3.8-7.9-5.9-11.9c-2.7-5.2-4.1-10.7-4.6-16.4c-1.1,0.5-2.1,0.8-3.1,1.3c-1.8,0.8-2.9,0.5-4.5-1.5
	c0.8-0.4,1.4-1,2.2-1.2c5.1-1.7,10.3-3.3,15.7-3.6c1-0.1,2.1-0.4,2.5,1.4c-2.9,1.3-6,1.6-8.9,2.5c1.5,3.7,3.1,7.2,4.5,10.9
	c0.7,1.7,2.8,12,3.7,16C284.3,102.2,283.4,103.5,282.5,102"/>
<path d="M296.2,89.3c0.4,4,0.7,7.4,1,11c-1.4-0.2-2-1-2.3-1.9c-1.2-3.8-3.1-7.4-3.7-11.4c-1-6.2-1.9-12.3-0.3-18.4
	c0.8-2.7,2.4-9.3,6.1-5.4c2.8,2.7,4.9,6,6.2,9.7c0.8,2.1,1.1,4.3,2,6.3c1.5,3.6,1.4,7.4,2.4,11c0.6,2,1.2,3.9,1.3,6.1
	c-1.5,0.1-1.6-0.8-1.9-1.7c-0.9-3.1-1.9-6.2-3-9.7C301.3,86.5,298.7,87.9,296.2,89.3 M303.2,82c-1.1-4.9-2.9-9.3-5.4-13.4
	c-0.5-0.9-1.2-1.7-2.5-1.9c0.1,6,0.1,11.9,0.2,18C298.4,84.3,300.8,83.4,303.2,82"/>
</svg>
